<?xml version="1.0" encoding="UTF-8" standalone="no"?>
<!-- Created with Inkscape (http://www.inkscape.org/) -->

<svg
   xmlns:dc="http://purl.org/dc/elements/1.1/"
   xmlns:cc="http://creativecommons.org/ns#"
   xmlns:rdf="http://www.w3.org/1999/02/22-rdf-syntax-ns#"
   xmlns:svg="http://www.w3.org/2000/svg"
   xmlns="http://www.w3.org/2000/svg"
   xmlns:sodipodi="http://sodipodi.sourceforge.net/DTD/sodipodi-0.dtd"
   xmlns:inkscape="http://www.inkscape.org/namespaces/inkscape"
   id="svg4225"
   version="1.1"
   inkscape:version="0.91 r13725"
   width="124.01575"
   height="124.01575"
   viewBox="0 0 124.01575 124.01575"
   sodipodi:docname="iron-watch.svg">
  <metadata
     id="metadata4231">
    <rdf:RDF>
      <cc:Work
         rdf:about="">
        <dc:format>image/svg+xml</dc:format>
        <dc:type
           rdf:resource="http://purl.org/dc/dcmitype/StillImage" />
        <dc:title />
      </cc:Work>
    </rdf:RDF>
  </metadata>
  <defs
     id="defs4229" />
  <sodipodi:namedview
     pagecolor="#ffffff"
     bordercolor="#666666"
     borderopacity="1"
     objecttolerance="10"
     gridtolerance="10"
     guidetolerance="10"
     inkscape:pageopacity="0"
     inkscape:pageshadow="2"
     inkscape:window-width="1276"
     inkscape:window-height="985"
     id="namedview4227"
     showgrid="false"
     inkscape:zoom="5.32"
     inkscape:cx="60.130951"
     inkscape:cy="52.042914"
     inkscape:window-x="0"
     inkscape:window-y="18"
     inkscape:window-maximized="0"
     inkscape:current-layer="svg4225"
     fit-margin-top="0"
     fit-margin-left="0"
     fit-margin-right="0"
     fit-margin-bottom="0" />
  <path
     style="fill:#0d131e"
     d="m 58.237333,123.80814 c -21.99985,-1.29877 -41.552725,-14.1386 -51.6423549,-33.912106 -3.230464,-6.33105 -5.289205,-13.11309 -6.23668799,-20.54533 -0.429238,-3.36704 -0.48373,-10.71153 -0.104139,-14.03637 C 1.0812321,48.069964 3.0553171,41.305794 6.2714231,34.696254 11.497781,23.955344 19.998523,14.776084 30.451349,8.5862841 c 15.260884,-9.03696997 34.09343,-11.06499 50.996752,-5.49169 15.611235,5.14729 28.691319,16.4189299 36.091649,31.1016899 4.51754,8.96315 6.71871,18.95477 6.45479,29.29983 -0.13662,5.35462 -0.63896,9.0738 -1.88463,13.95278 -5.14672,20.15869 -20.62486,36.747126 -40.401554,43.299786 -2.863637,0.94882 -7.728038,2.1141 -10.523098,2.52086 -1.986277,0.28904 -9.220319,0.82725 -9.891236,0.7359 -0.120084,-0.0164 -1.495594,-0.10514 -3.056689,-0.1973 z m -9.617987,-10.31907 c 0.306398,-0.28376 0.557086,-0.65685 0.557086,-0.8291 0,-0.93997 -7.561055,-14.300746 -8.216556,-14.519106 -0.44629,-0.14865 -7.390643,7.984036 -7.859113,9.203996 -0.351247,0.91469 8.735304,5.19443 13.564817,6.38899 1.297545,0.32092 1.350024,0.31436 1.953766,-0.24478 z m 31.03092,-0.22821 c 2.734448,-0.83105 4.56514,-1.58236 7.50773,-3.08106 2.78218,-1.41702 4.37543,-2.52263 4.37543,-3.03623 0,-0.57543 -6.85109,-8.802046 -7.35535,-8.832116 -0.50536,-0.0302 -7.928094,12.953076 -7.928094,13.867146 0,0.51621 0.494769,1.36901 0.849171,1.46369 0.645005,0.17227 0.810961,0.14744 2.551113,-0.38143 z M 105.43283,47.896184 c 1.49756,-2.52568 1.18365,-2.61411 0.9383,-2.87796 -1.85495,-1.05019 -4.29553,-2.27264 -6.35449,-2.2327 -0.897294,0.0639 -1.543214,0.35951 -5.378884,2.46199 -1.23464,0.67678 -1.970062,0.936112 -2.757395,1.666522 -0.781139,0.724664 -1.263264,1.601222 -1.853685,2.604168 l -23.230475,41.27039 c -1.345332,2.09398 -1.296709,4.89075 -1.258245,7.21556 0.0985,4.503006 0.301654,7.228716 0.499313,7.587626 0.153151,0.27807 0.376822,1.1981 0.851731,1.90269 0.445892,0.77712 0.772964,1.08918 0.98583,1.37886 0.874696,1.04772 1.270638,1.13838 2.183328,1.33145 C 82.316862,90.420804 95.396386,67.053084 105.43283,47.896184 Z M 55.974173,110.45696 c 1.089714,-0.8373 1.608365,-1.21299 2.611181,-2.36071 0.180125,-0.13712 0.648844,-0.6812 0.89835,-1.10174 0.777015,-1.30967 1.51759,-1.82698 1.674468,-8.619976 0.114229,-4.94634 -0.814616,-7.10004 -0.814616,-7.10004 C 55.870054,83.59822 41.52487,59.187975 35.63552,48.619221 c 0,0 -0.764866,-1.570127 -7.419244,-4.711907 -5.514681,-2.36844 -6.04944,-2.04618 -9.713194,-1.15232 -0.634752,0.23258 -1.100875,0.38727 -1.631881,0.71958 -0.09964,0.0797 -0.197654,0.12255 -0.226675,0.31423 13.632524,23.31552 21.921674,39.29564 35.125105,61.090156 0.194877,0.32064 0.747326,1.22664 1.227663,2.01331 l 0.87334,1.4303 0.731053,1.24658 c 0.566138,0.69104 1.041899,1.00957 1.372486,0.88781 z M 103.47323,96.937764 c 2.97006,-2.60481 5.13234,-5.50088 7.37532,-9.87809 1.70873,-3.33468 2.2678,-5.01504 2.40308,-7.22307 l 0.10838,-1.76855 -1.36115,-0.34513 c -0.74862,-0.18981 -1.60677,-0.39041 -1.90698,-0.44574 -0.30021,-0.0554 -2.01959,-0.39933 -3.82086,-0.76444 -1.80126,-0.3651 -4.4929,-0.87069 -5.98142,-1.12356 -1.488524,-0.25285 -2.795674,-0.47952 -2.904774,-0.50369 -2.05517,3.44423 -4.09101,6.96541 -6.06973,10.52473 0,0 3.69311,4.52287 7.20931,8.41306 1.518484,1.68 2.946564,3.27544 3.173504,3.54544 0.22696,0.27 0.48274,0.4909 0.56843,0.4909 0.0857,0 0.62879,-0.41485 1.20689,-0.92186 z m -80.441619,-0.55624 c 3.616229,-2.45847 7.363875,-7.47179 10.412366,-11.62355 -1.439448,-2.23044 -4.517652,-7.53372 -5.942932,-9.9135 -5.09961,0.8888 -10.623008,2.02711 -15.946621,3.25371 -0.60532,0.13837 -0.613301,0.16112 -0.550021,1.5692 0.05693,1.88552 0.783827,3.65918 1.524144,5.31957 0.846103,1.93534 3.067978,5.76377 4.256102,7.33356 1.617396,2.13695 2.905561,3.30302 3.286958,3.48015 1.368377,0.63003 1.704637,0.81656 2.960004,0.58086 z m 45.27997,-17.84227 -2.207773,0.0212 12.059225,-23.5761 1.053069,1.50569 4.186694,-6.60624 -8.003798,-0.0478 1.21996,1.94096 -26.061416,0.002 1.053329,-1.70938 -8.178074,0.15886 3.989739,6.58636 1.284655,-1.51186 13.152074,23.1213 -2.702958,0.0643 4.613782,6.38164 z M 12.059492,63.497884 c 5.104262,-0.93161 7.474268,-1.39276 7.800258,-1.51777 0.245904,-0.0943 0.04408,-0.63364 -0.913937,-2.44245 -1.094022,-2.06557 -5.598806,-9.66203 -6.062535,-10.2233 -0.09915,-0.12 -0.465771,-0.66 -0.814725,-1.2 -0.348954,-0.54 -0.934452,-1.15832 -1.301106,-1.37408 l -0.666647,-0.39229 -0.4390149,0.71956 c -0.924076,1.75478 -1.138903,2.50836 -1.525984,3.87134 -0.50224,0.93779 -1.097974,6.13104 -1.094671,9.54269 0.0022,2.30868 0.08434,2.89798 0.214993,3.12362 1.603419,0.94283 3.9982279,0.0401 4.8033689,-0.10732 z m 104.661648,0.0528 c 0.17961,-0.28663 0.36764,-1.42267 0.45189,-2.73018 0.12297,-1.90806 0.048,-1.64815 0.0242,-2.52829 -0.0237,-0.88016 -0.0977,-1.61676 -0.169,-2.48446 -0.0713,-0.86771 -0.36624,-1.93885 -0.38423,-2.23885 -0.3193,-1.24498 -0.77633,-2.62055 -1.25129,-3.5162 -0.63534,-1.42022 -1.56513,-2.54755 -2.24408,-3.2474 -0.23216,-0.27845 -1.02923,0.7472 -2.45214,3.27271 -2.80331,4.97553 -3.56504,6.35511 -4.82926,8.74631 -0.79861,1.51046 -1.452,2.85349 -1.452,2.98451 4.2259,0.88019 7.85858,1.69268 11.27561,2.23275 0.51282,0 0.81209,-0.14257 1.03036,-0.4909 z M 88.547442,43.693454 c 0.642573,-0.0059 1.774224,-0.75751 1.774224,-0.75751 0,0 6.26947,-3.95317 6.59352,-4.37926 1.60048,-2.138 1.91063,-6.21735 2.01835,-7.96437 -0.22312,-1.11261 -12.46554,-1.24177 -12.46554,-1.24177 l -54.246411,0.20824 c 0,0 -3.226768,0.0372 -5.050564,0.21448 -2.861793,0.27816 -2.734822,0.27938 -2.964652,0.79785 0.212446,2.22404 0.523931,3.66452 0.997415,5.60442 0.243354,0.97598 0.372833,1.11595 2.018349,2.1818 0.967074,0.62642 4.338968,2.401848 6.594913,3.424856 1.819111,0.824917 5.581305,2.180807 5.581305,2.180807 1.958805,-0.01364 32.765399,-0.267519 49.149091,-0.269543 z M 36.109043,23.979984 c 2.240379,-0.0469 4.186887,-0.21097 4.327423,-0.29777 0.181834,-0.1123 -0.103126,-1.1266 -0.988151,-3.51728 -1.359555,-3.67251 -2.060323,-5.19632 -2.592732,-5.63787 -2.988722,-0.34758 -10.780887,5.5282 -12.569337,9.13141 -0.02177,0.27114 0.0486,0.41008 0.382087,0.45375 0.442722,0.058 1.018689,0.0859 11.44071,-0.13224 z m 63.492743,-0.61518 c -0.85351,-1.75852 -7.63044,-7.05291 -11.83147,-8.9493 l -0.81465,-0.34014 -0.79114,1.66595 c -0.43512,0.91628 -0.8715,1.92328 -0.96975,2.23777 -0.0983,0.3145 -0.38641,1.11182 -0.64036,1.77181 -0.89716,2.33188 -1.337889,3.76164 -1.20158,3.89818 0.16318,0.16349 5.7474,0.36914 11.55072,0.42538 3.97248,0.0385 4.18455,0.0213 4.48147,-0.14455 0.29807,-0.14225 0.29284,-0.40818 0.21676,-0.5651 z m -30.896004,0.23865 c 0.424813,-0.8425 0.801438,-1.88455 1.091084,-2.65255 1.750122,-4.63029 3.279218,-9.5872 3.064508,-9.93436 -0.07179,-0.11608 -0.241217,-0.21106 -0.376499,-0.21106 -5.363678,-3.1808699 -15.996292,-3.2274999 -21.88317,-0.44621 -0.128119,0.20715 2.141237,7.03114 3.540441,10.64617 l 1.03448,2.67271 6.661225,-0.003 c 3.663674,-0.002 6.686013,-0.0345 6.867931,-0.0713 z"
     id="path4271"
     inkscape:connector-curvature="0"
     sodipodi:nodetypes="sssssssssssscssscscsssssscscccsaccccccccccsscccccccscccssccssssccscssccccccscccccccccccccccccccssssscccscccszzcccssccccccccccsccsaccsssccsscccscccscccccccscccc" />
</svg>
